<?xml version="1.0" encoding="UTF-8"?>
<svg id="Layer_1" data-name="Layer 1" xmlns="http://www.w3.org/2000/svg" viewBox="0 0 2160 2160">
  <defs>
    <style>
      .cls-1 {
        fill: #fff;
      }
    </style>
  </defs>
  <path d="M0,548l45.91,17.38c107.93,40.84,226.83,47.15,323.44,147,57.58,59.52,85.15,109.55,158.29,80.64,128.88-50.94,173.81-276.67,211.51-473.98,19.74-103.33,37.67-208.21,50.6-315.04h115.88c-3.45,50.6-12.53,99.63-20.57,148.42-34.56,156.95-72.18,316.83-113.1,468.93-22.61,84.03-48.43,165.76-83.99,234.68-47.92,92.85-113.5,161.84-148.54,273.93-33.26,106.39-43.33,264.28-29.48,382.5,20.18,172.22,106.9,213.34,182.7,289.2,31.02,31.05,60.68,65.94,89.6,102.71,90.37,114.89,159.28,243.91,282.03,198.65,74.48-27.46,180.2-135.3,193.14-280.65,13.01-146.2-32.94-287.56-15.04-438.74,18.01-152.14,125.96-297.89,182.48-415.59,91.97-191.56,121.85-409.67,270.81-490.57,52.31-28.4,111.03-40.03,165.54-29.22,102.02,20.23,193.56,134.56,297.7,139.75v182c-112.96-32.6-218.4-148.73-335.8-131.98-161.05,22.97-221.15,211.39-316.12,406.01-44.27,90.72-122.74,216.66-141.5,330.44-26.97,163.57,39.25,327.42,11.85,493.06-14.01,84.72-58.95,163.7-96.51,218.42l-55.66,74.05h-416.25c-54.69-86.52-111.54-175.42-183.38-213-113.22-59.23-211.64,3.26-323.45,18.98-49.39,6.94-101.35,5.79-150.73-1.99-50.77-7.99-78.57-25.62-128.1,14.29-7.79,6.28-15.1,16.11-23.22,19.72v-586c38.9-101.77,78.48-207.01,110.84-315.96,38.74-130.43,60.13-229.17-19.36-325.66-28.23-34.26-60.91-59.45-91.47-86.38v-136ZM286.61,1244.52c-36.55,9.43-73.48,85.86-86.9,143.51-18.43,79.17-23.83,221.52,48.24,189.76,46.08-20.31,84.83-106.59,93.54-187.72,7.65-71.31-3.96-158.69-54.87-145.55Z"/>
  <path d="M2121.75,2160h-199.12c-.8-3.03-2.4-4.44-3.92-6.02-21.59-22.47-46.19-45.57-68.45-66.32-85.61-79.84-137.94-104.07-229.89-28.01-23.75,19.64-67.26,62.22-86.42,92.37-1.47,2.31-2.77,4.11-2.82,7.98h-140.62c58.84-96.55,132.48-199.83,147.98-347.93,15.14-144.62-19.31-292.58,5.35-432.5,20.07-113.89,105.82-301.38,156.03-382.61,120.55-194.98,242.15-150.07,378.78-41.33,9.43,7.5,78.59,66.09,80.05,73.69l-.04,367.26c-57.81,98.9-127.73,194.4-166.46,322.07-45.78,150.9-15.18,250.95,53.66,349.29,23.89,34.13,50.6,61.53,75.91,92.06ZM1869.5,1206.55c-43.99,7.97-92.38,93.07-76.57,175.01,25.17,130.42,158.76-8.83,134.74-119.54-8.45-38.94-35.9-59.51-58.17-55.48Z"/>
  <path d="M0,418l60.14,8.08c65.43,3.25,130.51-8.6,194.32-32.7,41.95-15.85,84.79-42.66,127.48-49.37,32.46-5.1,80.96,2.63,106.83-38.08,11.84-18.63,18.2-49,5.12-70.97-14.38-24.16-62.3-33.29-83.51-45.54-50.87-29.37-88.88-102.17-112.26-185.42h486c-15,120.48-35.18,239.23-58.19,355.54-33.34,168.43-72.5,349.57-175.51,413.98-108.07,67.58-146.16-57.52-235.14-117.02-25.71-17.19-54.14-29.86-81.07-39.88-77.79-28.95-157.58-42.2-234.21-80.62v-118Z"/>
  <path d="M1230.75,2160c63.16-83.32,145.53-188.38,155.24-339.02,9.6-148.94-41.39-301.13-17.42-444.97,18.4-110.45,100.49-242.96,144.01-331.98,78.13-159.79,138.02-336.84,263.58-385.41,129.53-50.1,228.79,56.27,349.17,108.01,11.03,4.74,23.27,6.72,33.54,14.37v237c-1.33.45-2.16-.27-3.32-1.1-19.96-14.25-43.83-42.17-64.54-59.25-134.86-111.27-259.44-167.69-383.79,18.4-51.94,77.73-132.12,255.02-159.06,365.23-38.8,158.75,4.35,310.13-12.89,471.08-10.5,97.98-41.58,160.73-78.99,229.58-5.9,10.86-12.18,21.16-17.45,33.07l-52.83,84.99h-155.25Z"/>
  <path d="M804.38,2160H0v-132c24.74-24.88,53.04-44.78,81.58-49.97,24.37-4.43,48.82,1.53,73.06,2.05,60.39,1.3,119.97-1.4,179.91-14.33,72.93-15.73,143.29-47.92,217.25-37.73,95.97,13.23,155.31,83.79,226.11,190.03,8.97,13.46,17.98,27.52,26.47,41.95Z"/>
  <path class="cls-1" d="M0,6V0h2160v2160h-1.12l-.21-124.63c-29.89-46.33-63.55-105.36-66.22-180.28-3.13-87.8,31.82-172.09,66.43-228.09v-219c-1.96-.87-2.25,1.45-3.38,2.99-6.23,8.48-14.2,22.22-20.26,31.98-55.71,89.77-143.2,230.51-159.2,364.97-20.24,169.99,85.25,273.04,151.35,352.06h-5.62c-25.3-30.53-52.01-57.92-75.91-92.06-68.84-98.33-99.44-198.39-53.66-349.29,38.73-127.67,108.66-223.16,166.46-322.07l.04-367.26c-1.46-7.59-70.62-66.19-80.05-73.69-136.63-108.74-258.23-153.65-378.78,41.33-50.22,81.23-135.96,268.71-156.03,382.61-24.66,139.91,9.79,287.88-5.35,432.5-15.5,148.1-89.14,251.38-147.98,347.93h-4.5l52.83-84.99c5.26-11.9,11.55-22.21,17.45-33.07,37.41-68.85,68.49-131.6,78.99-229.58,17.24-160.95-25.91-312.34,12.89-471.08,26.94-110.21,107.12-287.51,159.06-365.23,124.35-186.09,248.93-129.68,383.79-18.4,20.71,17.09,44.58,45,64.54,59.25,1.16.83,1.99,1.55,3.32,1.1v-237c-10.27-7.65-22.51-9.62-33.54-14.37-120.38-51.75-219.64-158.11-349.17-108.01-125.57,48.56-185.45,225.62-263.58,385.41-43.52,89.01-125.61,221.52-144.01,331.98-23.96,143.85,27.02,296.03,17.42,444.97-9.71,150.65-92.08,255.7-155.24,339.02h-5.62l55.66-74.05c37.56-54.72,82.5-133.7,96.51-218.42,27.4-165.65-38.82-329.49-11.85-493.06,18.76-113.77,97.23-239.72,141.5-330.44,94.97-194.62,155.07-383.04,316.12-406.01,117.41-16.75,222.84,99.38,335.8,131.98v-182c-104.14-5.2-195.68-119.53-297.7-139.75-54.5-10.81-113.23.82-165.54,29.22-148.96,80.89-178.83,299.01-270.81,490.57-56.51,117.71-164.47,263.46-182.48,415.59-17.89,151.18,28.06,292.54,15.04,438.74-12.94,145.35-118.65,253.19-193.14,280.65-122.75,45.25-191.66-83.76-282.03-198.65-28.92-36.77-58.58-71.66-89.6-102.71-75.8-75.86-162.52-116.98-182.7-289.2-13.85-118.22-3.78-276.1,29.48-382.5,35.04-112.09,100.62-181.08,148.54-273.93,35.57-68.91,61.39-150.64,83.99-234.68,40.92-152.09,78.54-311.98,113.1-468.93,8.04-48.79,17.12-97.82,20.57-148.42h-115.88c-12.94,106.83-30.86,211.7-50.6,315.04-37.7,197.31-82.63,423.04-211.51,473.98-73.14,28.91-100.71-21.12-158.29-80.64-96.61-99.85-215.5-106.16-323.44-147L0,548v-12c76.64,38.42,156.42,51.67,234.21,80.62,26.92,10.02,55.35,22.69,81.07,39.88,88.98,59.5,127.07,184.6,235.14,117.02,103-64.41,142.17-245.55,175.51-413.98,23.02-116.31,43.2-235.06,58.19-355.54h-486c23.38,83.25,61.39,156.05,112.26,185.42,21.21,12.25,69.13,21.38,83.51,45.54,13.08,21.97,6.72,52.34-5.12,70.97-25.87,40.71-74.37,32.98-106.83,38.08-42.69,6.71-85.53,33.52-127.48,49.37-63.81,24.1-128.89,35.95-194.32,32.7L0,418v-12l56.76,10.1c64.16,3.19,128.05-6,190.78-29.02,40.27-14.78,80.03-39.9,120.12-52.45,26.64-8.34,94.37-8.79,109.15-49.95,11-30.63-8.39-45.84-21.74-54.71-16.9-11.22-35.15-17.23-51.98-29.6-49.58-36.43-87.63-113.2-111.73-196.37h-65.81l-1.41,2.91c2.8,69.61.48,149.42-25.05,206.03-32.7,72.49-100.12,98.91-150.17,103.04-16.25,1.34-32.73-1.15-48.93.02v-12c44.86,5.33,91.87,1.19,134.46-25.96,59.66-38.03,82.61-100.75,84.97-212.94.15-6.96.54-60.49-1.83-61.21L0,6ZM1485,4h-145.69c-.96,0-12.07,17.39-15.28,20.84-48.97,52.64-109.18,27.99-155.66-20.95l-255.85.37c-10.46,88.23-25.36,172.44-44.62,255.68-25.94,112.11-55.74,229.54-84.7,339.42-25.09,95.16-52.69,186.87-92.99,264.68-47.6,91.88-111.61,157.61-147.02,268.63-39.54,123.97-53.04,361.07-5.22,481.97,36.91,93.32,136.17,156.91,192.52,219.74,85.63,95.47,176.82,270.77,282.53,273.73,63.84,1.79,142.57-60.06,189.63-135.07,109.04-173.79,16.12-364.14,34.06-571.45,13.82-159.64,104.06-280.48,162.25-393.55,52.75-102.5,85.83-203.67,129.67-315.47,59.83-152.56,129.23-225.29,233.83-250.3,119.55-28.59,182.43,39.39,289.3,99.17,34.84,19.49,70.43,34.97,107.11,38.58v-202c-51.77,7.44-100.16-25.75-145.15-66.96-36.58-33.52-74.32-82.83-113.61-104.03-63.49-34.27-157.65,16.28-223.5,34.66-41.66,11.63-125.51,34.65-161.61-6.02-31.32-35.28-31.22-129.42-31.19-188.54,0-14.57,1.67-28.54,1.17-43.1ZM1329.75,4h-147.38c.47,3.18,2.28,4.81,3.73,6.37,38.39,41.16,105.7,49.27,142.22-1.79.92-1.28,2.06.08,1.42-4.58ZM2158.88,4h-667.69c-1.05,1.43-1.44,2.05-1.47,4.51-.1,6.71,1.17,16.13.96,24.57-2.7,108.51-1.93,199.96,70.41,214.66,85.83,17.44,185.04-52.85,270.93-61.82,82.22-8.59,117.53,56.71,184.71,117.79,43.31,39.38,92.45,75.15,142.15,64.29V4ZM2158.88,1638c-2.32-.49-3.62,3.44-5.1,5.95-31.35,53.16-61.49,134.58-57.88,215.01,2.98,66.49,35.09,127.46,62.98,167.03v-388Z"/>
  <path d="M0,316c16.2-1.17,32.68,1.32,48.93-.02,50.05-4.12,117.47-30.55,150.17-103.04,25.54-56.61,27.85-136.42,25.05-206.03l1.41-2.91h65.81c24.1,83.16,62.15,159.93,111.73,196.37,16.83,12.37,35.08,18.37,51.98,29.6,13.35,8.87,32.74,24.08,21.74,54.71-14.79,41.17-82.51,41.61-109.15,49.95-40.1,12.55-79.85,37.67-120.12,52.45-62.73,23.02-126.63,32.21-190.78,29.02L0,406v-90Z"/>
  <path d="M2127.38,2160c-66.09-79.02-171.58-182.07-151.35-352.06,16.01-134.46,103.49-275.2,159.2-364.97,6.06-9.76,14.03-23.51,20.26-31.98,1.13-1.54,1.42-3.86,3.38-2.99v219c-34.61,56-69.56,140.3-66.43,228.09,2.67,74.92,36.33,133.95,66.22,180.28l.21,124.63h-31.5Z"/>
  <path d="M0,1396v-700c8.69,3.66,17.05,11.45,25.15,18.28,83.92,70.75,144.02,133.95,99.56,316.43-26.64,109.35-78.64,256.55-118.17,353.91-1.64,4.03-3.48,10.82-6.54,11.37Z"/>
  <path d="M0,6l217.6-2.12c2.37.73,1.98,54.25,1.83,61.21-2.36,112.19-25.31,174.91-84.97,212.94-42.59,27.15-89.6,31.29-134.46,25.96V6Z"/>
  <path d="M1918.12,2160h-384.75c57.06-74.44,131.6-153.14,205.3-139.98,37.52,6.7,72.25,36.54,105.22,66.94,25.05,23.09,49.37,49.29,74.23,73.04Z"/>
  <path class="cls-1" d="M808.88,2160h-4.5c-8.48-14.43-17.49-28.48-26.47-41.95-70.8-106.24-130.14-176.8-226.11-190.03-73.97-10.19-144.32,22-217.25,37.73-59.93,12.93-119.51,15.63-179.91,14.33-24.24-.52-48.69-6.47-73.06-2.05-28.54,5.18-56.84,25.09-81.58,49.97v-30c8.12-3.61,15.43-13.44,23.22-19.72,49.53-39.91,77.33-22.29,128.1-14.29,49.38,7.78,101.34,8.93,150.73,1.99,111.8-15.71,210.23-78.2,323.45-18.98,71.84,37.58,128.69,126.48,183.38,213Z"/>
  <path class="cls-1" d="M0,1412v-16c3.06-.55,4.9-7.34,6.54-11.37,39.53-97.36,91.53-244.56,118.17-353.91,44.46-182.49-15.64-245.68-99.56-316.43-8.1-6.83-16.47-14.62-25.15-18.28v-12c30.57,26.93,63.25,52.12,91.47,86.38,79.5,96.49,58.1,195.23,19.36,325.66-32.36,108.94-71.94,214.19-110.84,315.96Z"/>
  <path class="cls-1" d="M1922.62,2160h-4.5c-24.85-23.76-49.18-49.95-74.23-73.04-32.97-30.4-67.7-60.24-105.22-66.94-73.71-13.16-148.24,65.54-205.3,139.98h-2.25c.05-3.88,1.35-5.67,2.82-7.98,19.16-30.15,62.67-72.73,86.42-92.37,91.95-76.06,144.28-51.83,229.89,28.01,22.25,20.75,46.85,43.86,68.45,66.32,1.52,1.58,3.12,2.99,3.92,6.02Z"/>
  <path class="cls-1" d="M286.61,1244.52c50.91-13.14,62.52,74.24,54.87,145.55-8.7,81.13-47.46,167.41-93.54,187.72-72.06,31.76-66.67-110.58-48.24-189.76,13.42-57.65,50.35-134.08,86.9-143.51ZM288.88,1256.56c-35.31,7.49-68.76,72.79-82.07,128.09-17.12,71.14-21.31,202.02,43.17,174.75,54.58-23.08,101.84-151.62,84.66-249.31-6.6-37.55-23.55-58.24-45.76-53.53Z"/>
  <path class="cls-1" d="M1869.5,1206.55c22.28-4.03,49.73,16.53,58.17,55.48,24.02,110.71-109.57,249.96-134.74,119.54-15.82-81.94,32.57-167.05,76.57-175.01ZM1866.1,1220.51c-39.56,8.3-86.38,100.27-60.75,168.98,34.72,93.08,148.47-49.37,109.37-138.44-11.45-26.08-30.74-34.29-48.62-30.54Z"/>
  <path d="M1485,4c.49,14.57-1.17,28.54-1.17,43.1-.03,59.12-.13,153.26,31.19,188.54,36.1,40.68,119.95,17.65,161.61,6.02,65.84-18.38,160.01-68.93,223.5-34.66,39.28,21.2,77.02,70.52,113.61,104.03,44.98,41.21,93.38,74.4,145.15,66.96v202c-36.68-3.6-72.27-19.08-107.11-38.58-106.87-59.78-169.75-127.76-289.3-99.17-104.6,25.01-174,97.74-233.83,250.3-43.84,111.8-76.93,212.97-129.67,315.47-58.19,113.07-148.43,233.91-162.25,393.55-17.94,207.3,74.98,397.66-34.06,571.45-47.07,75.01-125.79,136.86-189.63,135.07-105.71-2.96-196.9-178.25-282.53-273.73-56.35-62.83-155.61-126.42-192.52-219.74-47.81-120.9-34.31-358,5.22-481.97,35.41-111.02,99.42-176.75,147.02-268.63,40.31-77.81,67.91-169.52,92.99-264.68,28.97-109.87,58.76-227.31,84.7-339.42,19.26-83.23,34.16-167.45,44.62-255.68l255.85-.37c46.48,48.94,106.69,73.6,155.66,20.95,3.21-3.45,14.31-20.84,15.28-20.84h145.69ZM678.85,1573.16c15.77,25.48,34.49,48.87,52.04,70.47,47.11,57.99,98.21,116.67,146.7,171.2,51.87,58.33,102.36,113.24,166.65,84.6,117.68-52.42,78.09-286.2,84.14-442.41,9.43-243.15,129.11-368.97,208.09-540.07,45.86-99.36,73.52-205.36,86.32-332.54,6.05-60.06,14.46-168.2-10.35-216.43-24.2-47.06-104.52-57.37-140.31-68.56-78.48-24.54-192.68-83.72-264.49-9.03-107.29,111.59-161.13,434.2-232.28,613.06-31.87,80.12-71.44,145.33-104.84,221.61-65.91,150.49-75.86,312.05,8.32,448.1Z"/>
  <path d="M2158.88,4v364c-49.7,10.86-98.84-24.92-142.15-64.29-67.18-61.08-102.49-126.38-184.71-117.79-85.9,8.97-185.1,79.26-270.93,61.82-72.34-14.7-73.12-106.15-70.41-214.66.21-8.44-1.05-17.86-.96-24.57.04-2.46.42-3.08,1.47-4.51h667.69Z"/>
  <path d="M2158.88,1638v388c-27.9-39.57-60-100.55-62.98-167.03-3.61-80.44,26.53-161.86,57.88-215.01,1.48-2.51,2.78-6.45,5.1-5.95Z"/>
  <path d="M1329.75,4c.63,4.66-.51,3.3-1.42,4.58-36.52,51.06-103.83,42.95-142.22,1.79-1.45-1.56-3.26-3.19-3.73-6.37h147.38Z"/>
  <path d="M288.88,1256.56c22.21-4.71,39.16,15.98,45.76,53.53,17.18,97.69-30.09,226.23-84.66,249.31-64.48,27.27-60.29-103.61-43.17-174.75,13.31-55.31,46.76-120.61,82.07-128.09Z"/>
  <path d="M1866.1,1220.51c17.88-3.75,37.18,4.46,48.62,30.54,39.1,89.07-74.65,231.52-109.37,138.44-25.63-68.71,21.19-160.69,60.75-168.98Z"/>
  <path class="cls-1" d="M678.85,1573.16c-84.18-136.05-74.23-297.62-8.32-448.1,33.41-76.28,72.97-141.5,104.84-221.61,71.15-178.86,124.99-501.47,232.28-613.06,71.8-74.68,186.01-15.51,264.49,9.03,35.79,11.19,116.11,21.5,140.31,68.56,24.81,48.24,16.39,156.37,10.35,216.43-12.8,127.17-40.46,233.18-86.32,332.54-78.97,171.1-198.66,296.92-208.09,540.07-6.06,156.21,33.54,389.99-84.14,442.41-64.29,28.64-114.77-26.27-166.65-84.6-48.49-54.53-99.59-113.21-146.7-171.2-17.55-21.6-36.28-44.99-52.04-70.47ZM1092.84,1846.83c55.56-93.49,25.64-287.75,33.29-413.82,14.91-245.63,153.34-382.51,227.7-569.19,40.33-101.25,68.42-246.21,70.46-370.74,1.78-109.04-19.74-140.72-76.31-162.5-47.48-18.28-100.2-31.65-148.5-46-93.46-27.77-161.75-55.06-233.69,77.39-79.72,146.77-113.43,352.36-176.02,519.08-48.2,128.4-145.51,264.46-163.97,412.5-24.23,194.34,63.6,292.94,140.85,384.49,40.08,47.5,81.46,97.51,122.18,142.79,61.36,68.23,141.65,130.91,204,26Z"/>
  <path d="M1092.84,1846.83c-62.34,104.91-142.64,42.22-204-26-40.73-45.28-82.1-95.28-122.18-142.79-77.25-91.55-165.08-190.15-140.85-384.49,18.46-148.04,115.76-284.1,163.97-412.5,62.59-166.72,96.29-372.31,176.02-519.08,71.94-132.45,140.23-105.16,233.69-77.39,48.3,14.35,101.02,27.72,148.5,46,56.57,21.78,78.1,53.45,76.31,162.5-2.04,124.53-30.13,269.5-70.46,370.74-74.36,186.69-212.8,323.57-227.7,569.19-7.65,126.06,22.27,320.32-33.29,413.82Z"/>
</svg>